<?xml version="1.0" encoding="utf-8" ?><svg xmlns="http://www.w3.org/2000/svg" xmlns:xlink="http://www.w3.org/1999/xlink" width="2304" height="1536" viewBox="0 0 2304 1536">
<defs>
  <mask id="hole-mask">
    <rect width="100%" height="100%" fill="white"/>
    <path fill="black" d="M429.384 666.763C437.698 642.309 450.545 620.158 474.886 609.747C523.481 588.963 586.802 597.813 610.592 648.799C621.412 672.337 622.473 699.202 613.543 723.52C596.963 768.572 554.585 786.411 509.938 788.854C483.141 790.32 455.967 790.79 429.17 789.514L424.598 788.915C425.537 784.922 425.164 763.103 425.19 757.698C425.348 725.526 423.077 700.889 429.114 669.027L429.384 666.763Z"/>
    <path fill="black" d="M1278.39 759.881C1326.56 756.7 1368.22 793.09 1371.55 841.249C1374.88 889.409 1338.62 931.184 1290.47 934.66C1242.11 938.152 1200.12 901.699 1196.77 853.33C1193.43 804.961 1230.01 763.076 1278.39 759.881Z"/>
    <path fill="black" d="M921.918 754.308C967.075 749.401 1001.45 773.41 1013.32 816.888L944.25 817.044L849.939 816.938C852.453 806.893 856.814 797.404 862.8 788.955C877.952 767.504 896.896 758.566 921.918 754.308Z"/>
  </mask>
</defs>
<g mask="url(#hole-mask)">
  <path fill="#FD8764" d="M274.006 920.553L273.95 747.73C273.948 719.776 272.646 674.597 275.534 648.413C277.493 630.187 281.761 612.285 288.236 595.136C306.594 547.258 341.593 508.285 388.636 486.912C415.015 474.928 448.856 469.941 477.105 477.812C484.866 479.974 494.885 485.215 502.899 488.28L502.945 488.87C506.695 491.645 512.031 495.315 515.098 498.596L515.564 498.993C518.799 499.504 521.52 497.239 525.047 495.433C536.113 490.687 543.78 487.523 555.337 484.431C589.483 470.877 627.627 471.515 661.301 486.204C699.312 502.58 732.065 538.814 747.14 577.102L747.489 578.013C774.564 639.344 773.354 713.653 749.226 775.703C727.912 831.223 685.293 875.922 630.849 899.853C582.788 920.874 534.018 921.921 482.605 921.349C463.837 921.14 444.395 921.703 425.696 921.11C423.79 925.258 424.661 1092.97 424.611 1110.66L382.479 1110.67C381.975 1102.62 380.432 1097.15 375.437 1090.54C369.983 1083.26 361.838 1078.48 352.829 1077.27C343.456 1076.1 334.011 1078.79 326.661 1084.72C317.88 1091.79 314.638 1099.96 313.555 1110.76C300.452 1110.57 287.074 1110.7 273.947 1110.69L273.988 1064.83C295.427 1060.36 297.73 1037.28 274.106 1031.69L273.913 1009.66C296.089 1004.6 297.639 981.921 274.066 976.072L274.062 953.541C296.638 947.117 296.912 924.905 274.006 920.553Z"/>
  <path fill="#FC9465" d="M274.006 920.553L273.95 747.73C273.948 719.776 272.646 674.597 275.534 648.413C277.493 630.187 281.761 612.285 288.236 595.136C306.594 547.258 341.593 508.285 388.636 486.912C415.015 474.928 448.856 469.941 477.105 477.812C484.866 479.974 494.885 485.215 502.899 488.28L502.945 488.87C506.695 491.645 512.031 495.315 515.098 498.596C511.561 503.866 489.381 517.818 481.979 525.105C443.193 563.296 422.915 616.607 420.997 670.472C420.924 676.27 420.872 680.563 421.397 686.325C426.47 704.003 421.679 783.975 424.598 788.915L429.17 789.514L425.558 790.848C423.817 795.146 423.311 905.582 423.663 919.399L424.893 920.566L425.696 921.11C423.79 925.258 424.661 1092.97 424.611 1110.66L382.479 1110.67C381.975 1102.62 380.432 1097.15 375.437 1090.54C369.983 1083.26 361.838 1078.48 352.829 1077.27C343.456 1076.1 334.011 1078.79 326.661 1084.72C317.88 1091.79 314.638 1099.96 313.555 1110.76C300.452 1110.57 287.074 1110.7 273.947 1110.69L273.988 1064.83C295.427 1060.36 297.73 1037.28 274.106 1031.69L273.913 1009.66C296.089 1004.6 297.639 981.921 274.066 976.072L274.062 953.541C296.638 947.117 296.912 924.905 274.006 920.553Z"/>
  <path fill="#FD8764" d="M421.397 686.325L420.723 688.317L419.892 687.743C402.8 618.874 432.057 545.692 484.568 499.133C488.705 495.465 497.224 488.446 502.945 488.87C506.695 491.645 512.031 495.315 515.098 498.596C511.561 503.866 489.381 517.818 481.979 525.105C443.193 563.296 422.915 616.607 420.997 670.472C420.924 676.27 420.872 680.563 421.397 686.325Z"/>
  <path fill="#FD6E62" d="M747.489 578.013C774.564 639.344 773.354 713.653 749.226 775.703C727.912 831.223 685.293 875.922 630.849 899.853C582.788 920.874 534.018 921.921 482.605 921.349C463.837 921.14 444.395 921.703 425.696 921.11L424.893 920.566L424.914 841.826C453.44 860.982 485.89 869.472 519.909 871.496C576.604 874.444 632.138 854.692 674.24 816.607C733.407 764.022 763.449 682.67 751.483 604.585C750.074 595.393 746.626 587.482 747.489 578.013Z"/>
  <path fill="#FDB282" d="M525.047 495.433C536.113 490.687 543.78 487.523 555.337 484.431C551.947 487.499 545.001 491.165 540.844 493.287C476.075 526.349 436.156 591.268 428.593 662.794C428.405 664.569 428.703 665.168 429.384 666.763L429.114 669.027C423.077 700.889 425.348 725.526 425.19 757.698C425.164 763.103 425.537 784.922 424.598 788.915C421.679 783.975 426.47 704.003 421.397 686.325C420.872 680.563 420.924 676.27 420.997 670.472C422.915 616.607 443.193 563.296 481.979 525.105C489.381 517.818 511.561 503.866 515.098 498.596L515.564 498.993C518.799 499.504 521.52 497.239 525.047 495.433Z"/>
  <path fill="#FD8764" d="M1273.31 681.414C1305.19 678.581 1337.19 685.303 1365.23 700.725C1403.59 722.182 1431.74 758.122 1443.38 800.501C1446.43 811.908 1448.33 823.588 1449.08 835.37C1450.6 858.455 1449.11 886.465 1449.34 909.902C1449.51 927.165 1452.3 975.022 1444.7 988.064C1439.3 997.213 1430.5 1003.85 1420.21 1006.5C1396.89 1012.53 1378.94 998.209 1373.19 976.031C1355.66 991.184 1343.38 997.457 1321.7 1004.21C1272.82 1018.58 1212.29 1004.12 1173.85 971.16C1141.29 943.021 1121.21 903.121 1118.01 860.204C1114.74 815.81 1129.33 771.949 1158.55 738.363C1188.29 703.933 1228.18 684.643 1273.31 681.414Z"/>
  <path fill="#FD8764" d="M849.992 872.961C855.373 893.77 865.449 910.67 883.584 923.569C912.319 944.007 957.463 942.087 987.72 925.872C1000.11 918.782 1009.02 906.978 1023.66 904.264C1044.63 900.38 1065.31 913.96 1068.48 935.366C1069.77 944.032 1066.48 955.448 1060.56 962.214C1037.1 988.761 1001.42 1001.9 967.213 1007.05C872.316 1021.32 783.516 966.719 769.828 867.796C763.721 824.742 775.115 781.035 801.465 746.442C828.089 711.496 867.517 688.57 911.058 682.718C980.574 673.482 1043.99 705.335 1074.83 769.105C1080.24 780.3 1086.28 795.526 1087.89 807.838C1090.56 817.584 1092.02 833.04 1092.08 843.213C1092.26 854.201 1089.61 871.787 1075.21 872.389C1052.11 873.355 1028.48 872.829 1005.32 872.817L849.992 872.961Z"/>
  <path fill="#FC9465" d="M1087.89 807.838C1090.56 817.584 1092.02 833.04 1092.08 843.213C1091.01 840.555 1087.98 835.408 1086.48 832.686C1085.1 833.738 1085.79 833.61 1084.55 833.552C1082.32 820.681 1088.76 822.051 1087.99 809.216L1087.89 807.838Z"/>
  <path fill="#FD8764" d="M1847.61 527.386C1859.16 527.558 1868.15 529.915 1877.12 537.802C1882.74 542.656 1886.73 549.118 1888.56 556.315C1891.49 568.176 1889.76 586.37 1890.22 599.058C1891.41 631.498 1888.28 671.71 1890.49 703.444C1961.3 661.476 2055.04 678.117 2089.87 757.877C2111.51 806.049 2103.72 859.84 2105.06 911.02C2106.12 926.197 2103.91 944.277 2105.38 959.027C2110.26 1000.45 2066.66 1022.31 2035.35 996.532C2018.54 982.686 2023.09 946.929 2023.1 926.619C2023.33 893.278 2023.26 859.937 2022.91 826.598C2021.77 815.828 2020.83 808.615 2016.67 798.381C1999.87 757.081 1936.04 745.806 1906.87 779.911C1886.29 803.972 1890 842.399 1890.07 872.25L1890.25 944.034C1890.28 959.142 1892.25 976.759 1883.92 989.469C1877.86 998.552 1868.39 1004.8 1857.65 1006.79C1846.29 1009 1834.52 1006.5 1825.05 999.865C1818.27 995.084 1810.31 985.207 1809.64 977.058C1808.18 959.298 1808.71 939.298 1808.71 921.369L1808.74 809.743L1808.71 646.524C1808.71 618.263 1808.02 589.313 1809.38 561.161C1810.34 541.287 1829.81 529.743 1847.61 527.386Z"/>
  <path fill="#FD8764" d="M1628.51 680.382C1673.99 677.443 1716.75 689.755 1751.36 720.301C1763.42 730.948 1775.36 743.821 1776.25 760.702C1776.82 771.215 1773.12 781.512 1765.99 789.258C1758.67 797.266 1748.44 801.992 1737.61 802.366C1703.22 803.608 1696.03 756.29 1637.23 759.397C1614.56 760.571 1593.31 770.819 1578.27 787.834C1513.58 860.108 1595.65 971.186 1683.61 925.083C1705.16 913.786 1708.06 897.551 1735.41 895.626C1769.83 896.899 1786.67 936.93 1764.21 961.191C1705.99 1024.08 1596.4 1023.69 1532.73 971.754C1500.64 945.823 1480.38 908.039 1476.53 866.963C1472.13 820.507 1486.47 774.217 1516.37 738.388C1546.02 702.224 1582.48 684.933 1628.51 680.382Z"/>
  <path fill="#72CBB1" d="M703.746 321.123C704.726 322.239 704.88 322.853 704.841 324.443C703.723 360.313 695.804 398.352 672.219 426.506C639.813 465.19 583.299 466.08 536.77 469.627C555.482 421.475 593.067 394.739 638.731 375.634C641.389 374.877 647.624 372.127 650.466 370.955C649.637 371.051 648.808 371.152 647.979 371.259C591.834 378.391 558.468 402.26 524.597 445.864C526.959 392.191 556.888 354.634 608.968 340.905C640.529 332.585 673.09 332.262 703.746 321.123Z"/>
  <path fill="#44A088" d="M469.108 423.955C473.761 409.192 483.613 406.637 494.033 418.176C510.006 437.311 517.75 453.569 523.194 477.829C524.265 484.539 524.995 488.698 525.047 495.433C521.52 497.239 518.799 499.504 515.564 498.993L515.098 498.596C512.031 495.315 506.695 491.645 502.945 488.87L502.899 488.28L502.679 482.836C499.425 464.71 493.213 451.508 480.757 437.779C476.849 433.471 472.034 428.879 469.108 423.955Z"/>
</g>
</svg>