<?xml version="1.0" encoding="utf-8" ?><svg xmlns="http://www.w3.org/2000/svg" xmlns:xlink="http://www.w3.org/1999/xlink" width="4096" height="4096" viewBox="0 0 4096 4096"><path fill="#FD8566" d="M1719.13 3335.68C1689.23 3335.94 1617.21 3337.95 1585.47 3334.01C1578.77 3333.17 1577.44 3300.59 1573.31 3292.99C1563.2 3274.39 1550.04 3257.22 1533.17 3243.79C1509.7 3225.23 1479.75 3216.88 1450.06 3220.62C1406.98 3225.74 1369.27 3252.22 1352.99 3293.37C1348.61 3304.43 1345.08 3326.89 1338.74 3334.96C1313.21 3337.25 1243.52 3336.29 1217.81 3334.53C1214.53 3330.31 1213.7 3326.8 1212.91 3321.53C1210.56 3305.87 1209.14 3187.92 1217.72 3178.59C1224.44 3171.29 1247.38 3174.39 1262.09 3152.31C1270.73 3139.34 1272.62 3120.46 1268.68 3105.56C1261.5 3078.4 1237.71 3076.65 1217.21 3065.38C1213 3053.24 1209.19 3002.8 1212.85 2998.74C1236.79 2972.22 1281.04 2977.57 1268.65 2921.01C1261.1 2886.55 1243.96 2891.56 1217.98 2877.86C1212.86 2868.05 1209.32 2817.41 1212.6 2810.02C1222.44 2787.83 1265.57 2796.45 1270.31 2752.16C1276.33 2695.83 1225.68 2698.49 1212.51 2682.36L1212.6 2126.84L1212.44 1933.08C1212.38 1828.26 1212.63 1722.11 1238.45 1618.9C1272.24 1483.8 1346.17 1360.39 1451.38 1268.56C1473.66 1249.11 1524.26 1215.49 1548.78 1200.94C1626.24 1154.95 1726.29 1126.5 1816.6 1131.58C1827.87 1133.07 1846.93 1130.02 1857.28 1132.37C1884.81 1138.62 1913.68 1143.28 1939.96 1153.54C1953.59 1158.86 1967.28 1170.07 1981.71 1172.91L1989.74 1177.57C2004.21 1192.37 2021.26 1203.36 2037.98 1220.83C2048.12 1213.66 2059.3 1210.68 2069.25 1202.86C2090.69 1192.45 2153.75 1165.12 2177.91 1162.93C2185.79 1152.9 2270.63 1136.59 2302.4 1133.59C2529.9 1112.1 2724.97 1255.19 2820.28 1454.07C2820.22 1454.71 2820.15 1455.36 2820.09 1456C2827 1462.65 2835.53 1483.72 2839.39 1492.68C2867.85 1558.79 2887.1 1626.49 2898.77 1697.47C2902.44 1719.8 2901.71 1741.67 2906.04 1763.6C2909.36 1780.39 2908.34 1802.95 2908.28 1820.52C2908.31 1940.65 2885.3 2059.67 2840.48 2171.12C2834.4 2186.16 2823.9 2213.86 2815.47 2226.71C2806.83 2237.23 2804.23 2250.62 2797.93 2262.47C2794.16 2269.58 2787.62 2276.25 2783.55 2283.1C2669.84 2474.6 2466.55 2610.15 2247.31 2646.92C2205.88 2653.87 2158.81 2659.02 2116.01 2662.11L2116.92 2662.24C2081.06 2665.06 2036.41 2664.29 1999.88 2664.27L1824.43 2664.05C1807.61 2664.04 1730.26 2661.5 1723.82 2667.67C1723.91 2704.12 1723.41 2740.56 1722.33 2776.99L1721.8 2768.01C1718.65 2809.78 1720.43 2876.39 1720.43 2920.31L1720.52 3194.63C1720.54 3227.29 1722.6 3306.44 1719.13 3335.68ZM1719.98 1936.17C1722.95 1978.16 1719.69 2030.17 1721.42 2074.39L1722.79 2056.76C1723.22 2079.99 1723.25 2103.23 1722.87 2126.46L1720.97 2112.7C1720.9 2126.29 1721.6 2152.49 1720.42 2165.04C1720.45 2174.29 1720.06 2194.04 1721.43 2202.14C1723.55 2206.48 1723.56 2206.8 1726.67 2210.42C1741.29 2214.53 1764.72 2212.01 1781.79 2213.08L1777.95 2213.88C1806.82 2220.29 1881.17 2214.78 1913.01 2213.93C2039.45 2210.55 2152.14 2208.55 2259.82 2133.68C2489.12 1974.25 2406.95 1588.66 2118.63 1568.81C1956.21 1556.46 1813.64 1590.61 1746.29 1754.73C1741.09 1767.47 1735.37 1780.7 1734.98 1794.71L1731.96 1794.24C1732.86 1811.52 1726.16 1822.76 1725.45 1836.76C1723.82 1868.77 1719.81 1904.64 1719.98 1936.17Z"/><path fill="#FD986A" d="M1719.13 3335.68C1689.23 3335.94 1617.21 3337.95 1585.47 3334.01C1578.77 3333.17 1577.44 3300.59 1573.31 3292.99C1563.2 3274.39 1550.04 3257.22 1533.17 3243.79C1509.7 3225.23 1479.75 3216.88 1450.06 3220.62C1406.98 3225.74 1369.27 3252.22 1352.99 3293.37C1348.61 3304.43 1345.08 3326.89 1338.74 3334.96C1313.21 3337.25 1243.52 3336.29 1217.81 3334.53C1214.53 3330.31 1213.7 3326.8 1212.91 3321.53C1210.56 3305.87 1209.14 3187.92 1217.72 3178.59C1224.44 3171.29 1247.38 3174.39 1262.09 3152.31C1270.73 3139.34 1272.62 3120.46 1268.68 3105.56C1261.5 3078.4 1237.71 3076.65 1217.21 3065.38C1213 3053.24 1209.19 3002.8 1212.85 2998.74C1236.79 2972.22 1281.04 2977.57 1268.65 2921.01C1261.1 2886.55 1243.96 2891.56 1217.98 2877.86C1212.86 2868.05 1209.32 2817.41 1212.6 2810.02C1222.44 2787.83 1265.57 2796.45 1270.31 2752.16C1276.33 2695.83 1225.68 2698.49 1212.51 2682.36L1212.6 2126.84L1212.44 1933.08C1212.38 1828.26 1212.63 1722.11 1238.45 1618.9C1272.24 1483.8 1346.17 1360.39 1451.38 1268.56C1473.66 1249.11 1524.26 1215.49 1548.78 1200.94C1626.24 1154.95 1726.29 1126.5 1816.6 1131.58C1827.87 1133.07 1846.93 1130.02 1857.28 1132.37C1884.81 1138.62 1913.68 1143.28 1939.96 1153.54C1953.59 1158.86 1967.28 1170.07 1981.71 1172.91L1989.74 1177.57C2004.21 1192.37 2021.26 1203.36 2037.98 1220.83C1811.72 1342.69 1688.29 1628.59 1710.15 1878.72C1714.85 1896.64 1715.45 1918.96 1719.98 1936.17C1722.95 1978.16 1719.69 2030.17 1721.42 2074.39L1722.79 2056.76C1723.22 2079.99 1723.25 2103.23 1722.87 2126.46L1720.97 2112.7C1720.9 2126.29 1721.6 2152.49 1720.42 2165.04C1720.45 2174.29 1720.06 2194.04 1721.43 2202.14C1723.55 2206.48 1723.56 2206.8 1726.67 2210.42C1741.29 2214.53 1764.72 2212.01 1781.79 2213.08L1777.95 2213.88C1763.61 2212.37 1737.56 2214.01 1722.15 2214.2C1721.89 2274.63 1721.98 2335.05 1722.41 2395.47C1722.35 2429.44 1725.62 2656.37 1719.37 2668.9L1720.29 2672.16C1723.14 2670.03 1721.85 2671.43 1723.82 2667.67C1723.91 2704.12 1723.41 2740.56 1722.33 2776.99L1721.8 2768.01C1718.65 2809.78 1720.43 2876.39 1720.43 2920.31L1720.52 3194.63C1720.54 3227.29 1722.6 3306.44 1719.13 3335.68Z"/><path fill="#FD8566" d="M1710.15 1878.72C1700.57 1855.92 1694.43 1817.1 1691.08 1792.46C1669.18 1631.62 1748.25 1414.3 1853.83 1291.61C1882.88 1257.88 1915.4 1227.3 1950.85 1200.39C1958.9 1194.25 1979.7 1180.65 1981.71 1172.91L1989.74 1177.57C2004.21 1192.37 2021.26 1203.36 2037.98 1220.83C1811.72 1342.69 1688.29 1628.59 1710.15 1878.72Z"/><path fill="#FC6D63" d="M2820.09 1456C2827 1462.65 2835.53 1483.72 2839.39 1492.68C2867.85 1558.79 2887.1 1626.49 2898.77 1697.47C2902.44 1719.8 2901.71 1741.67 2906.04 1763.6C2909.36 1780.39 2908.34 1802.95 2908.28 1820.52C2908.31 1940.65 2885.3 2059.67 2840.48 2171.12C2834.4 2186.16 2823.9 2213.86 2815.47 2226.71C2806.83 2237.23 2804.23 2250.62 2797.93 2262.47C2794.16 2269.58 2787.62 2276.25 2783.55 2283.1C2669.84 2474.6 2466.55 2610.15 2247.31 2646.92C2205.88 2653.87 2158.81 2659.02 2116.01 2662.11L2116.92 2662.24C2081.06 2665.06 2036.41 2664.29 1999.88 2664.27L1824.43 2664.05C1807.61 2664.04 1730.26 2661.5 1723.82 2667.67C1721.85 2671.43 1723.14 2670.03 1720.29 2672.16L1719.37 2668.9C1725.62 2656.37 1722.35 2429.44 1722.41 2395.47C1731.7 2398.88 1741.89 2406.2 1750.63 2411.36C1857.2 2474.29 1989.22 2495.99 2110.72 2494.19C2585.69 2487.16 2957.01 1987.88 2840.64 1530.37C2836.53 1514.23 2819.55 1468.42 2820.09 1456Z"/><path fill="#FCB485" d="M2069.25 1202.86C2090.69 1192.45 2153.75 1165.12 2177.91 1162.93L2178.27 1165.63C2121.24 1196.59 2087.71 1212.96 2032.35 1251.88C1891.73 1350.71 1807.37 1482.5 1759.37 1646.09C1750.9 1674.95 1729.62 1767.11 1731.96 1794.24C1732.86 1811.52 1726.16 1822.76 1725.45 1836.76C1723.82 1868.77 1719.81 1904.64 1719.98 1936.17C1715.45 1918.96 1714.85 1896.64 1710.15 1878.72C1688.29 1628.59 1811.72 1342.69 2037.98 1220.83C2048.12 1213.66 2059.3 1210.68 2069.25 1202.86Z"/><path fill="#71CEB3" d="M2681.43 597.94L2682.23 597.954C2685.47 604.133 2684.14 642.84 2683.53 651.391C2674.62 777.444 2641.4 908.479 2544.86 996.087C2454.06 1079.22 2329.5 1096.47 2211.74 1106.1C2195.06 1107.46 2119.24 1118.34 2110.85 1107C2113.56 1094.93 2121.49 1084.4 2125.25 1070.25C2129.89 1052.83 2147.81 1031.36 2157.79 1015.18C2221.79 911.43 2312.71 854.631 2419 800.398C2426.49 798.95 2453.43 789.754 2459.04 785.573L2459.54 782.059C2447.86 775.029 2380.46 795.507 2363.91 801.16C2270.15 833.472 2186.35 889.506 2120.66 963.81C2109.21 976.636 2093.17 992.697 2085.98 1007.43L2085.12 1009.23C2081.47 1011 2082.1 1010.23 2079.87 1012.54L2070.07 1022.85L2067.71 1022.17C2064.21 1002.99 2073.74 943.054 2080.03 923.296C2093.95 877.36 2111.96 841.023 2140.04 802.352C2244.07 658.617 2425.31 650.355 2585.02 623.959C2620.79 618.048 2648 606.332 2681.43 597.94Z"/><path fill="#429D85" d="M1989.74 1177.57C1993.16 1167.93 1986.75 1146.37 1984.66 1136.72C1970.05 1069.37 1930.86 1014.54 1881.77 967.811C1878.21 964.424 1876.63 939.417 1880.24 934.839C1901.31 895.56 1935.41 901.375 1961.32 932.14C2020.06 1001.89 2055.74 1082.3 2066.83 1172.64C2068.04 1182.53 2067.75 1193.25 2069.25 1202.86C2059.3 1210.68 2048.12 1213.66 2037.98 1220.83C2021.26 1203.36 2004.21 1192.37 1989.74 1177.57Z"/></svg>